<svg width="30" height="29" viewBox="0 0 30 29" fill="none" xmlns="http://www.w3.org/2000/svg">
<path d="M15 19.3333C16.5625 19.3333 17.8906 18.8047 18.9844 17.7474C20.0781 16.6901 20.625 15.4062 20.625 13.8958C20.625 12.3854 20.0781 11.1015 18.9844 10.0443C17.8906 8.98696 16.5625 8.45831 15 8.45831C13.4375 8.45831 12.1094 8.98696 11.0156 10.0443C9.92188 11.1015 9.375 12.3854 9.375 13.8958C9.375 15.4062 9.92188 16.6901 11.0156 17.7474C12.1094 18.8047 13.4375 19.3333 15 19.3333ZM15 17.1583C14.0625 17.1583 13.2656 16.8411 12.6094 16.2067C11.9531 15.5724 11.625 14.8021 11.625 13.8958C11.625 12.9896 11.9531 12.2193 12.6094 11.5849C13.2656 10.9505 14.0625 10.6333 15 10.6333C15.9375 10.6333 16.7344 10.9505 17.3906 11.5849C18.0469 12.2193 18.375 12.9896 18.375 13.8958C18.375 14.8021 18.0469 15.5724 17.3906 16.2067C16.7344 16.8411 15.9375 17.1583 15 17.1583ZM15 22.9583C11.9583 22.9583 9.1875 22.1377 6.6875 20.4963C4.1875 18.855 2.375 16.6548 1.25 13.8958C2.375 11.1368 4.1875 8.93661 6.6875 7.29529C9.1875 5.65397 11.9583 4.83331 15 4.83331C18.0417 4.83331 20.8125 5.65397 23.3125 7.29529C25.8125 8.93661 27.625 11.1368 28.75 13.8958C27.625 16.6548 25.8125 18.855 23.3125 20.4963C20.8125 22.1377 18.0417 22.9583 15 22.9583ZM15 20.5416C17.3542 20.5416 19.5156 19.9425 21.4844 18.7443C23.4531 17.546 24.9583 15.9298 26 13.8958C24.9583 11.8618 23.4531 10.2456 21.4844 9.04738C19.5156 7.84911 17.3542 7.24998 15 7.24998C12.6458 7.24998 10.4844 7.84911 8.51562 9.04738C6.54688 10.2456 5.04167 11.8618 4 13.8958C5.04167 15.9298 6.54688 17.546 8.51562 18.7443C10.4844 19.9425 12.6458 20.5416 15 20.5416Z" fill="#E3E3E3"/>
</svg>
